<svg xmlns="http://www.w3.org/2000/svg" xmlns:xlink="http://www.w3.org/1999/xlink" version="1.1" width="376.34437pt" height="167.50931pt" viewBox="0 0 376.34437 167.50931">
<g>
<path transform="matrix(1,0,0,1,-3.885138,-107.2157)" d="M104.379 173.004C118.531 180.328 137.926 184.148 144.129 178.672 141.953 185.301 139.148 191.707 135.75 197.797 124.996 217.066 144.227 219.352 180.562 224.109L167.488 242.199C167.488 242.199 163.5 248.109 161.25 248.199 152.609 248.641 147.75 264.238 156.316 269.023 166.066 274.469 182.461 255.227 184.68 252.629 186.898 250.035 197.52 237 204.75 228.863 209.453 230.836 213.047 233.805 214.695 238.566 218.445 249.48 231.75 233.371 228.039 221.949 227.004 218.766 222.84 215.387 217.266 212.145L218.391 210.766C218.391 210.766 237.309 194.078 269.559 195.766 281.559 196.387 287.699 185.781 290.805 175.328 290.805 175.328 311.109 162.488 328.5 171.855 352.598 184.824 355.191 175.328 355.191 175.328 355.191 175.328 370.02 171.824 374.289 165.984 380.398 157.629 367.824 148.5 367.824 148.5 367.824 148.5 367.426 137.379 360.75 132.367 354.074 127.359 359.641 125.137 344.07 121.801 336.285 120.137 331.426 124.441 328.5 129.172 315.148 123.984 300.324 131.078 292.172 128.844 284.016 126.609 272.887 120.137 257.324 124.402 242.926 128.332 224.684 113.25 184.641 114 156.758 114.523 127.441 124.746 101.191 146.691 98.07 150.289 96.395 154.914 96.48 159.676 96.547 165.207 99.555 170.281 104.379 172.996ZM104.379 173.004" fill="#f1d589"/>
<path transform="matrix(1,0,0,1,-3.885138,-107.2157)" d="M104.379 173.004C118.531 180.328 137.926 184.148 144.129 178.672 141.953 185.301 139.148 191.707 135.75 197.797 124.996 217.066 144.227 219.352 180.562 224.109L167.488 242.199C167.488 242.199 163.5 248.109 161.25 248.199 152.617 248.641 147.75 264.238 156.316 269.023 159.156 270.621 162.586 270.098 166.066 268.492 174.449 264.629 183.129 254.469 184.695 252.629 186.945 250.035 197.574 236.949 204.781 228.84 209.488 230.812 213.074 233.781 214.727 238.547 218.477 249.457 231.781 233.348 228.066 221.926 227.355 219.75 225.188 217.477 222.066 215.234 220.641 214.199 219.016 213.156 217.254 212.121 217.254 212.121 237.328 194.086 269.578 195.766 281.578 196.387 287.723 185.781 290.828 175.328 292.199 170.605 293.145 165.766 293.656 160.875L294.047 160.922C316.004 157.035 321.105 160.605 317.918 167.977V168.613C321.621 168.996 325.215 170.094 328.5 171.848 352.598 184.816 355.191 175.32 355.191 175.32 355.191 175.32 370.02 171.816 374.289 165.977 380.398 157.621 367.824 148.492 367.824 148.492 367.824 148.492 367.426 137.371 360.75 132.359 354.074 127.352 359.641 125.137 344.07 121.793 336.285 120.129 331.426 124.434 328.5 129.164 315.148 123.977 300.324 131.07 292.172 128.836 284.016 126.602 272.887 120.129 257.324 124.395 242.926 128.332 224.684 113.25 184.641 114 156.758 114.523 127.441 124.746 101.191 146.691 98.07 150.289 96.395 154.914 96.48 159.676 96.543 165.211 99.555 170.289 104.379 173.004ZM175.746 195.188C175.746 195.188 196.516 190.746 199.844 162.188 199.957 161.199 200.031 160.238 200.055 159.309 206.637 161.863 212.805 165.379 218.363 169.734 213.375 177 195 201.922 195 201.922 184.582 197.887 175.746 195.188 175.746 195.188ZM175.746 195.188" fill="#d5791b"/>
<path transform="matrix(1,0,0,1,-3.885138,-107.2157)" d="M150.039 201.922C153.555 192.172 162.48 184.434 162.48 164.543 162.48 144.652 166.703 131.543 176.566 133.043 185.301 134.895 200.723 140.789 200.055 159.359 200.055 160.289 199.957 161.25 199.844 162.238 196.516 190.785 175.746 195.238 175.746 195.238 175.746 195.238 184.582 197.941 195.008 201.988 197.879 203.086 200.879 204.309 203.836 205.59 214.395 190.125 228.645 174.391 242.289 175.664 253.762 176.73 250.867 164.496 258.203 160.98 265.539 157.461 294 155.715 294 155.715 294 155.715 293.949 157.734 293.609 160.867 293.102 165.758 292.156 170.598 290.781 175.32 287.676 185.773 281.543 196.379 269.535 195.758 237.285 194.078 217.207 212.113 217.207 212.113 218.969 213.148 220.598 214.191 222.023 215.227 222.254 215.656 224.707 220.672 212.543 218.797 209.438 218.277 206.359 217.594 203.324 216.75 201.441 216.234 199.5 215.773 197.504 215.34 174.871 210.504 146.82 210.871 150.039 201.922ZM150.039 201.922" fill="#efa747"/>
<path transform="matrix(1,0,0,1,-3.885138,-107.2157)" d="M191.672 225.594C196.449 226.344 200.941 227.273 204.727 228.863 197.52 236.969 186.871 250.059 184.641 252.652 183.074 254.488 174.398 264.652 166.012 268.516 166.012 268.516 179.398 249.301 187.371 234.016 187.371 234 188.934 230.656 191.672 225.594ZM191.672 225.594" fill="#efa747"/>
<path transform="matrix(1,0,0,1,-3.885138,-107.2157)" d="M357.441 141.801C362.602 142.281 363.383 152.055 357.441 148.551 351.504 145.051 348.809 141 357.441 141.801ZM357.441 141.801"/>
<path transform="matrix(1,0,0,1,-3.885138,-107.2157)" d="M344.551 129.629C347.586 128.355 349.141 134.707 345.691 135.426 342.414 136.125 341.039 130.508 344.551 129.629"/>
<path transform="matrix(1,0,0,1,-3.885138,-107.2157)" d="M340.012 139.941C342.516 139.816 343.379 143.992 341.25 145.156 338.586 146.609 336.254 142.621 337.539 140.477 338.312 140.113 339.156 139.93 340.012 139.941ZM340.012 139.941"/>
<path transform="matrix(1,0,0,1,-3.885138,-107.2157)" d="M354.359 154.664C357.898 154.352 356.609 160.059 353.332 158.977 350.559 158.062 352.418 155.289 354.359 154.664ZM354.359 154.664"/>
<path transform="matrix(1,0,0,1,-3.885138,-107.2157)" d="M342.293 157.289C344.504 157.551 345.652 160.566 343.898 162.074 341.648 163.973 339.727 160.574 340.605 158.551 340.898 157.855 341.543 157.371 342.293 157.289ZM342.293 157.289"/>
<path transform="matrix(1,0,0,1,-3.885138,-107.2157)" d="M330.082 154.246C331.941 155.277 331.059 158.113 328.941 157.906 327.219 157.719 326.477 155.047 327.871 154.02 328.586 153.648 329.457 153.734 330.082 154.246ZM330.082 154.246"/>
<path transform="matrix(1,0,0,1,-3.885138,-107.2157)" d="M316.395 150.059C317.625 150.629 318.449 151.172 318.832 152.527 319.234 154.059 318.82 155.691 317.738 156.848 316.613 158.023 315.023 157.066 314.07 156.098 312.977 155.016 313.148 153.27 313.824 151.988 314.25 151.207 315.316 150.066 316.395 150.059ZM316.395 150.059"/>
<path transform="matrix(1,0,0,1,-3.885138,-107.2157)" d="M311.387 136.051C313.695 136.59 314.445 138.301 314.109 140.551 313.922 141.855 313.176 143.504 311.902 144.074 310.629 144.645 308.738 144.285 307.957 143.227 307.266 142.305 307.449 140.586 307.5 139.477 307.551 138.367 307.914 136.828 309 136.102 309.711 135.598 310.656 135.578 311.387 136.051ZM311.387 136.051"/>
<path transform="matrix(1,0,0,1,-3.885138,-107.2157)" d="M296.25 136.77C297.441 136.77 298.5 137.961 298.664 139.02 298.902 140.949 297.84 142.805 296.055 143.578 292.094 144.953 291.613 139.5 293.391 137.309 294.051 136.539 294.801 136.5 296.25 136.77ZM296.25 136.77"/>
<path transform="matrix(1,0,0,1,-3.885138,-107.2157)" d="M277.59 130.934C279.66 130.746 281.047 133.352 280.738 135.09 280.363 137.25 279.031 139.102 276.629 138.488 273.496 137.684 273.691 133.883 275.512 131.949 275.992 131.285 276.773 130.906 277.59 130.934ZM277.59 130.934"/>
<path transform="matrix(1,0,0,1,-3.885138,-107.2157)" d="M287.203 141.93C287.953 141.797 288.668 142.508 289.059 143.078 289.809 144.141 289.5 145.379 288.914 146.445 287.805 148.477 284.484 149.086 283.914 146.289 283.5 144.336 285.047 142.5 287.203 141.93ZM287.203 141.93"/>
<path transform="matrix(1,0,0,1,-3.885138,-107.2157)" d="M263.773 133.164C265.344 133.074 267.457 135.711 267.188 137.199 266.633 140.297 263.055 139.344 261.809 137.348 261.148 136.281 260.773 134.949 261.703 134.031 262.191 133.395 262.98 133.062 263.773 133.164ZM263.773 133.164"/>
<path transform="matrix(1,0,0,1,-3.885138,-107.2157)" d="M254.387 132.457C256.062 132.418 257.512 133.617 257.789 135.27 258.137 137.52 256.086 138.855 254.039 138.328 251.789 137.746 251.512 136.262 251.91 134.273 252.137 133.117 252.703 132.137 254.387 132.457ZM254.387 132.457"/>
<path transform="matrix(1,0,0,1,-3.885138,-107.2157)" d="M239.438 124.074C241.516 123.324 245.094 125.309 244.5 127.754 243.855 130.734 239.867 131.332 238.379 128.672 237.879 127.809 237.316 126.359 237.816 125.414 238.215 124.816 238.777 124.352 239.438 124.074ZM239.438 124.074"/>
<path transform="matrix(1,0,0,1,-3.885138,-107.2157)" d="M120.609 133.312C122.684 132.562 126.254 134.551 125.672 136.996 125.027 139.973 121.035 140.57 119.551 137.91 119.039 137.047 118.484 135.602 118.988 134.656 119.383 134.059 119.945 133.59 120.609 133.312ZM120.609 133.312"/>
<path transform="matrix(1,0,0,1,-3.885138,-107.2157)" d="M254.16 142.859C256.41 143.609 258.48 146.094 256.816 148.297 255.523 150.008 251.895 151.844 251.121 148.621 250.777 147.18 252 143.309 254.16 142.859ZM254.16 142.859"/>
<path transform="matrix(1,0,0,1,-3.885138,-107.2157)" d="M140.023 154.148C142.273 154.898 144.352 157.379 142.688 159.586 141.398 161.297 137.766 163.133 136.988 159.906 136.641 158.469 137.828 154.598 140.023 154.148ZM140.023 154.148"/>
<path transform="matrix(1,0,0,1,-3.885138,-107.2157)" d="M274.5 156.285C275.293 156.328 276.02 156.727 276.48 157.371 277.441 158.762 276.137 160.754 274.98 161.602 272.602 163.328 270.398 161.023 270.629 158.602 270.922 156.797 272.77 155.688 274.5 156.285ZM274.5 156.285"/>
<path transform="matrix(1,0,0,1,-3.885138,-107.2157)" d="M278.879 163.426C281.184 163.727 281.129 167.176 280.148 168.578 278.789 170.445 276.301 170.699 275.211 168.359 274.125 166.02 276.789 164.07 278.879 163.426ZM278.879 163.426"/>
<path transform="matrix(1,0,0,1,-3.885138,-107.2157)" d="M290.496 161.363C292.801 161.664 292.746 165.113 291.766 166.516 290.406 168.383 287.918 168.637 286.836 166.297 285.758 163.957 288.406 162 290.496 161.363ZM290.496 161.363"/>
<path transform="matrix(1,0,0,1,-3.885138,-107.2157)" d="M277.402 173.406C280.047 173.188 281.762 176.137 280.262 178.328 278.871 180.238 275.934 182.078 274.641 178.926 273.906 177.156 274.906 173.723 277.402 173.406ZM277.402 173.406"/>
<path transform="matrix(1,0,0,1,-3.885138,-107.2157)" d="M263.578 164.707C265.508 166.148 265.164 168.523 263.289 169.922 261.734 171.082 259.449 169.508 259.629 167.672 259.793 166.496 260.473 165.453 261.48 164.828 261.953 164.504 263.004 164.191 263.578 164.707ZM263.578 164.707"/>
<path transform="matrix(1,0,0,1,-3.885138,-107.2157)" d="M253.449 177.75C256.266 177.504 257.438 180.254 255.996 182.398 254.82 184.156 251.961 185.023 250.746 182.762 249.75 180.887 250.777 177.594 253.449 177.75ZM253.449 177.75"/>
<path transform="matrix(1,0,0,1,-3.885138,-107.2157)" d="M267.164 181.184C268.047 181.52 268.699 182.27 268.914 183.188 269.379 184.883 268.641 185.641 267.238 186.422 266.184 187.004 265.164 187.359 264.059 186.703 263.145 186.215 262.598 185.234 262.664 184.199 262.645 181.867 265.016 180.277 267.164 181.184ZM267.164 181.184"/>
<path transform="matrix(1,0,0,1,-3.885138,-107.2157)" d="M279.18 186.855C280.059 187.188 280.715 187.941 280.926 188.859 281.391 190.551 280.656 191.309 279.254 192.09 278.199 192.676 277.176 193.027 276.074 192.375 275.156 191.891 274.609 190.906 274.68 189.871 274.66 187.539 277.031 185.949 279.18 186.855ZM279.18 186.855"/>
<path transform="matrix(1,0,0,1,-3.885138,-107.2157)" d="M243.465 178.547C245.844 178.867 247.328 182.707 246.945 184.688 246.691 186.008 246.488 186.887 244.934 186.871 243.453 186.773 242.039 186.219 240.887 185.289 239.156 183.699 238.938 181.055 240.383 179.203 241.02 178.5 241.77 178.5 243.465 178.547ZM243.465 178.547"/>
<path transform="matrix(1,0,0,1,-3.885138,-107.2157)" d="M253.754 188.086C256.133 188.406 257.617 192.246 257.234 194.227 256.98 195.547 256.777 196.426 255.219 196.41 253.738 196.312 252.324 195.754 251.176 194.82 249.453 193.234 249.234 190.594 250.672 188.746 251.309 188.023 252.059 188.023 253.754 188.086ZM253.754 188.086"/>
<path transform="matrix(1,0,0,1,-3.885138,-107.2157)" d="M178.5 231.637C180.871 231.961 182.363 235.801 181.973 237.781 181.719 239.102 181.516 239.977 179.961 239.961 178.484 239.863 177.07 239.309 175.922 238.371 174.199 236.785 173.98 234.145 175.418 232.297 176.078 231.578 176.828 231.578 178.5 231.637ZM178.5 231.637"/>
<path transform="matrix(1,0,0,1,-3.885138,-107.2157)" d="M228.129 173.129C230.102 173.43 230.789 175.875 229.828 177.473 228.637 179.445 225.328 179.371 224.355 177.211 223.719 175.777 224.676 174.277 225.855 173.496 226.344 173.191 227.789 172.387 228.129 173.129ZM228.129 173.129"/>
<path transform="matrix(1,0,0,1,-3.885138,-107.2157)" d="M229.051 189.684C232.359 188.754 231.113 195.684 227.949 194.797 226.402 194.379 225.414 191.844 226.531 190.59 227.219 189.969 228.125 189.645 229.051 189.684ZM229.051 189.684"/>
<path transform="matrix(1,0,0,1,-3.885138,-107.2157)" d="M213.945 195.113C216.195 194.941 217.477 197.363 216.773 199.254 215.941 201.504 213.328 203.16 211.746 200.594 210.391 198.406 211.68 196.32 213.945 195.113ZM213.945 195.113"/>
<path transform="matrix(1,0,0,1,-3.885138,-107.2157)" d="M208.734 159.254C210.984 159.074 212.273 161.504 211.566 163.387 210.727 165.637 208.117 167.301 206.535 164.73 205.184 162.539 206.469 160.453 208.734 159.254ZM208.734 159.254"/>
<path transform="matrix(1,0,0,1,-3.885138,-107.2157)" d="M218.578 183.473C219.457 183.547 220.25 184.031 220.719 184.777 221.992 186.504 221.16 188.324 219.801 189.703 219.051 190.453 217.754 191.496 216.637 190.898 215.52 190.297 215.25 188.461 215.309 187.336 215.348 185.438 216.715 183.824 218.578 183.473ZM218.578 183.473"/>
<path transform="matrix(1,0,0,1,-3.885138,-107.2157)" d="M217.426 172.371C218.301 172.449 219.094 172.934 219.562 173.676 220.828 175.402 219.996 177.227 218.641 178.605 217.891 179.355 216.594 180.398 215.477 179.797 214.359 179.199 214.086 177.359 214.148 176.234 214.188 174.332 215.555 172.719 217.426 172.371ZM217.426 172.371"/>
<path transform="matrix(1,0,0,1,-3.885138,-107.2157)" d="M213.074 223.641C215.207 223.684 217.098 225.023 217.844 227.016 218.594 229.484 217.094 232.516 214.492 232.98 209.828 233.82 207.398 227.766 210.742 224.887 211.438 224.332 212.227 223.91 213.074 223.641ZM213.074 223.641"/>
<path transform="matrix(1,0,0,1,-3.885138,-107.2157)" d="M202.648 212.062C205.23 211.77 206.812 215.062 206.023 217.199 205.531 218.527 204.398 220.133 202.883 220.199 201.477 220.199 200.148 219.566 199.262 218.477 197.844 216.48 199.336 211.5 202.648 212.062ZM202.648 212.062"/>
<path transform="matrix(1,0,0,1,-3.885138,-107.2157)" d="M176.707 204.832C179.289 205.844 181.539 208.809 180.84 211.738 180.047 215.086 175.656 214.184 174.227 211.836 173.266 210.27 173.07 207.871 174.391 206.469 174.75 206.113 176.25 204.75 176.707 204.832ZM176.707 204.832"/>
<path transform="matrix(1,0,0,1,-3.885138,-107.2157)" d="M170.371 204.75C172.41 205.5 174.75 207.961 173.934 210.277 172.688 213.824 167.934 212.773 166.883 209.574 166.352 207.914 166.5 206.52 167.879 205.469 168.309 205.164 169.371 204.164 170.371 204.75ZM170.371 204.75"/>
<path transform="matrix(1,0,0,1,-3.885138,-107.2157)" d="M181.273 245.453C183.316 246.203 185.656 248.672 184.836 250.98 183.594 254.527 178.836 253.477 177.789 250.273 177.254 248.617 177.406 247.223 178.785 246.172 179.25 245.852 180.277 244.852 181.273 245.453ZM181.273 245.453"/>
<path transform="matrix(1,0,0,1,-3.885138,-107.2157)" d="M146.203 201.359C148.289 201.137 149.773 204.031 149.559 205.754 149.16 208.898 147.129 209.926 144.57 208.184 143.254 207.379 142.551 205.863 142.793 204.336 143.031 203.48 143.5 202.703 144.141 202.086 144.57 201.383 145.434 201.078 146.203 201.359ZM146.203 201.359"/>
<path transform="matrix(1,0,0,1,-3.885138,-107.2157)" d="M163.215 247.328C165.301 247.102 166.793 249.988 166.574 251.723 166.176 254.863 164.137 255.891 161.578 254.152 160.27 253.344 159.566 251.828 159.801 250.305 160.043 249.445 160.512 248.668 161.16 248.055 161.582 247.352 162.445 247.047 163.215 247.328ZM163.215 247.328"/>
<path transform="matrix(1,0,0,1,-3.885138,-107.2157)" d="M163.215 214.5C165.301 214.273 166.793 217.164 166.574 218.895 166.176 222.039 164.137 223.066 161.578 221.324 160.27 220.516 159.566 219 159.801 217.477 160.043 216.617 160.512 215.84 161.16 215.227 161.582 214.523 162.445 214.219 163.215 214.5ZM163.215 214.5"/>
<path transform="matrix(1,0,0,1,-3.885138,-107.2157)" d="M162.531 190.004C164.488 190.641 165.09 193.809 163.695 195.254 161.867 197.238 158.551 195.988 158.488 193.289 158.535 191.297 160.32 188.781 162.531 190.004ZM162.531 190.004"/>
<path transform="matrix(1,0,0,1,-3.885138,-107.2157)" d="M189.789 231.938C191.746 232.574 192.344 235.738 190.949 237.188 189.121 239.172 185.805 237.922 185.746 235.223 185.789 233.25 187.574 230.715 189.789 231.938ZM189.789 231.938"/>
<path transform="matrix(1,0,0,1,-3.885138,-107.2157)" d="M179.324 133.629C181.289 134.266 181.883 137.43 180.496 138.879 178.668 140.875 175.336 139.621 175.281 136.914 175.328 134.926 177.113 132.406 179.324 133.629ZM179.324 133.629"/>
<path transform="matrix(1,0,0,1,-3.885138,-107.2157)" d="M190.305 200.773C192.262 201.414 192.863 204.578 191.469 206.023 189.637 208.012 186.316 206.754 186.262 204.051 186.309 202.066 188.094 199.551 190.305 200.773ZM190.305 200.773"/>
<path transform="matrix(1,0,0,1,-3.885138,-107.2157)" d="M157.629 199.125C159.824 198.938 160.809 201.496 159.578 203.078 158.348 204.66 156.238 205.727 154.68 203.762 152.852 201.449 155.301 199.262 157.629 199.125ZM157.629 199.125"/>
<path transform="matrix(1,0,0,1,-3.885138,-107.2157)" d="M183.219 121.441C185.406 121.254 186.391 123.809 185.168 125.391 183.945 126.977 181.828 128.039 180.27 126.074 178.441 123.75 180.891 121.574 183.219 121.441ZM183.219 121.441"/>
<path transform="matrix(1,0,0,1,-3.885138,-107.2157)" d="M161.422 178.426C162.609 180.676 161.656 182.477 159.961 184.172 158.684 185.453 156.832 185.828 155.348 184.59 152.953 182.609 153.613 177.773 156.441 176.543 157.441 176.027 158.625 176.027 159.621 176.543 160.273 176.926 161.355 177.594 161.422 178.426ZM161.422 178.426"/>
<path transform="matrix(1,0,0,1,-3.885138,-107.2157)" d="M147.645 187.352C148.836 189.602 147.887 191.391 146.191 193.094 144.906 194.371 143.055 194.746 141.578 193.516 139.184 191.527 139.844 186.691 142.672 185.461 143.676 184.957 144.859 184.973 145.852 185.496 146.504 185.844 147.586 186.516 147.645 187.352ZM147.645 187.352"/>
<path transform="matrix(1,0,0,1,-3.885138,-107.2157)" d="M170.34 141.473C171.523 143.723 170.574 145.523 168.84 147.219 167.566 148.5 165.711 148.867 164.227 147.637 161.844 145.656 162.496 140.82 165.324 139.582 166.324 139.07 167.508 139.07 168.512 139.582 169.199 139.965 170.25 140.641 170.34 141.473ZM170.34 141.473"/>
<path transform="matrix(1,0,0,1,-3.885138,-107.2157)" d="M272.559 145.117C273.742 147.367 272.789 149.168 271.059 150.871 269.781 152.145 267.93 152.52 266.445 151.289 264.059 149.301 264.711 144.465 267.539 143.234 268.543 142.727 269.727 142.727 270.727 143.234 271.418 143.617 272.488 144.293 272.559 145.117ZM272.559 145.117"/>
<path transform="matrix(1,0,0,1,-3.885138,-107.2157)" d="M176.789 175.254C177.773 175.359 178.641 175.941 179.109 176.812 179.621 177.895 179.309 179.191 178.359 179.918 176.953 181.246 174.539 181.551 173.672 179.461 172.934 177.75 174.75 174.961 176.789 175.254ZM176.789 175.254"/>
<path transform="matrix(1,0,0,1,-3.885138,-107.2157)" d="M192.586 143.43C193.57 143.531 194.438 144.113 194.91 144.984 195.426 146.066 195.113 147.359 194.16 148.086 192.75 149.414 190.336 149.723 189.465 147.629 188.738 145.906 190.539 143.129 192.586 143.43ZM192.586 143.43"/>
<path transform="matrix(1,0,0,1,-3.885138,-107.2157)" d="M169.043 158.52C169.832 158.535 170.586 158.859 171.137 159.426 172.828 160.672 174.109 162.395 174.816 164.371 175.934 167.578 174.328 173.324 170.414 169.777 169.074 168.562 168.344 166.926 167.504 165.359 166.812 164.258 166.496 162.961 166.605 161.664 166.695 160.926 167.762 157.965 169.043 158.52ZM169.043 158.52"/>
<path transform="matrix(1,0,0,1,-3.885138,-107.2157)" d="M252.422 153.18C253.207 153.199 253.957 153.527 254.512 154.086 256.195 155.34 257.477 157.059 258.195 159.031 259.305 162.238 257.707 167.984 253.785 164.438 252.441 163.23 251.723 161.594 250.883 160.02 250.184 158.922 249.867 157.625 249.984 156.328 250.066 155.594 251.129 152.633 252.422 153.18ZM252.422 153.18"/>
<path transform="matrix(1,0,0,1,-3.885138,-107.2157)" d="M165.449 163.5C167.461 163.359 168.301 166.336 167.488 167.754 166.547 169.379 164.738 169.328 163.664 167.863 162.922 166.715 163.012 165.215 163.891 164.16 164.25 163.801 164.52 163.754 165.449 163.5ZM165.449 163.5"/>
<path transform="matrix(1,0,0,1,-3.885138,-107.2157)" d="M214.824 212.527C216.832 212.387 217.672 215.363 216.855 216.781 215.918 218.406 214.102 218.355 213.031 216.898 212.289 215.746 212.383 214.242 213.262 213.188 213.594 212.828 213.891 212.781 214.824 212.527ZM214.824 212.527"/>
<path transform="matrix(1,0,0,1,-3.885138,-107.2157)" d="M186.234 213.938C188.242 213.801 189.082 216.781 188.266 218.191 187.328 219.824 185.512 219.766 184.449 218.309 183.699 217.16 183.793 215.656 184.672 214.605 185.004 214.246 185.301 214.199 186.234 213.938ZM186.234 213.938"/>
<path transform="matrix(1,0,0,1,-3.885138,-107.2157)" d="M165.449 115.957C167.461 115.824 168.301 118.801 167.488 120.211 166.547 121.844 164.738 121.785 163.664 120.328 162.922 119.18 163.012 117.68 163.891 116.625 164.25 116.25 164.52 116.25 165.449 115.957ZM165.449 115.957"/>
<path transform="matrix(1,0,0,1,-3.885138,-107.2157)" d="M215.25 117.156C217.262 117.016 218.102 120 217.289 121.41 216.344 123.047 214.539 122.984 213.465 121.531 212.727 120.379 212.816 118.879 213.691 117.824 214.051 117.465 214.352 117.414 215.25 117.156ZM215.25 117.156"/>
<path transform="matrix(1,0,0,1,-3.885138,-107.2157)" d="M175.434 151.566C177.316 150.816 179.184 153.301 178.711 154.988 178.238 156.676 175.328 157.5 174.039 156.359 173.129 155.559 172.973 153.488 173.676 152.469 174.133 151.965 174.758 151.645 175.434 151.566ZM175.434 151.566"/>
<path transform="matrix(1,0,0,1,-3.885138,-107.2157)" d="M183.156 153.391C184.98 153.961 186.848 156.156 185.559 158.086 184.145 160.324 180.836 160.195 179.602 157.852 178.852 156.352 179.754 154.156 181.215 153.316 181.824 152.965 182.578 152.992 183.156 153.391ZM183.156 153.391"/>
<path transform="matrix(1,0,0,1,-3.885138,-107.2157)" d="M189.195 159.938C191.113 160.027 191.863 163.262 191.648 164.699 191.211 167.578 187.281 169.641 186.066 166.199 185.449 164.281 185.871 162.176 187.176 160.641 187.754 159.906 188.625 159.324 189.195 159.938ZM189.195 159.938"/>
<path transform="matrix(1,0,0,1,-3.885138,-107.2157)" d="M189.195 178.793C191.113 178.891 191.863 182.113 191.648 183.555 191.211 186.434 187.281 188.504 186.066 185.055 185.449 183.133 185.867 181.027 187.176 179.488 187.754 178.77 188.625 178.184 189.195 178.793ZM189.195 178.793"/>
<path transform="matrix(1,0,0,1,-3.885138,-107.2157)" d="M155.805 148.156C158.055 148.77 159.074 152.762 157.891 154.539 156.512 156.711 153.219 156.254 152.484 153.789 152.055 152.176 153.051 150.523 154.133 149.43 154.629 148.898 155.25 148.648 155.805 148.156ZM155.805 148.156"/>
<path transform="matrix(1,0,0,1,-3.885138,-107.2157)" d="M128.289 163.957C131.047 164.016 133.262 166.957 132.113 169.59 131.137 171.797 128.602 172.402 126.984 170.586 125.844 169.312 125.379 167.062 126.48 165.609 126.988 164.961 127.598 164.406 128.289 163.957ZM128.289 163.957"/>
<path transform="matrix(1,0,0,1,-3.885138,-107.2157)" d="M111.473 155.453C113.977 156.008 113.918 160.117 112.914 161.828 111.246 164.641 105.922 163.711 104.664 160.836 103.648 158.543 105.637 156.246 107.664 155.527 108.523 155.25 110.316 154.891 111.473 155.453ZM111.473 155.453"/>
<path transform="matrix(1,0,0,1,-3.885138,-107.2157)" d="M302.617 151.836C305.121 152.391 305.062 156.496 304.051 158.203 302.391 161.016 297.066 160.086 295.801 157.215 294.781 154.926 296.766 152.633 298.801 151.906 299.664 151.605 301.5 151.266 302.617 151.836ZM302.617 151.836"/>
<path transform="matrix(1,0,0,1,-3.885138,-107.2157)" d="M114.172 144.988C115.312 145.477 116.34 145.531 116.672 146.934 116.996 148.266 116.543 149.664 115.5 150.555 113.762 151.922 110.871 151.801 110.379 149.191 110.109 147.75 112.402 144.531 114.172 144.988ZM114.172 144.988"/>
<path transform="matrix(1,0,0,1,-3.885138,-107.2157)" d="M126.547 145.605C129.039 145.305 129.324 149.203 128.641 150.742 127.434 153.465 124.215 153.562 122.812 151.078 121.703 149.27 122.293 146.902 124.125 145.828 124.68 145.5 125.941 145.172 126.547 145.605ZM126.547 145.605"/>
<path transform="matrix(1,0,0,1,-3.885138,-107.2157)" d="M135.512 143.25C138.18 143.469 138.891 146.656 137.469 148.68 135.602 151.328 131.039 150.711 130.141 147.531 129.586 145.852 130.598 144.062 132.324 143.672 133.273 143.355 134.641 142.816 135.512 143.25ZM135.512 143.25"/>
<path transform="matrix(1,0,0,1,-3.885138,-107.2157)" d="M139.328 130.754C140.828 130.004 142.469 131.82 142.891 133.078 143.391 134.402 143.289 135.879 142.613 137.121 141.434 138.816 139.359 139.027 137.625 138.137 135.609 137.094 134.574 134.387 136.086 132.48 136.953 131.57 138.09 130.965 139.328 130.754ZM139.328 130.754"/>
<path transform="matrix(1,0,0,1,-3.885138,-107.2157)" d="M159.441 129.473C160.941 129.426 162.352 129.945 162.945 131.406 163.824 133.559 162.129 135.906 159.984 136.32 157.836 136.734 155.289 134.82 156.234 132.449 156.898 131.094 158.043 130.035 159.441 129.473ZM159.441 129.473"/>
<path transform="matrix(1,0,0,1,-3.885138,-107.2157)" d="M200.191 124.125C201.504 123.629 203.039 124.605 203.762 125.691 205.434 128.25 202.539 131.754 199.719 131.332 195.344 130.68 196.449 124.027 200.191 124.125ZM200.191 124.125"/>
<path transform="matrix(1,0,0,1,-3.885138,-107.2157)" d="M224.004 127.891C224.586 128.117 225.102 128.484 225.504 128.961 226.426 130.273 226.711 132.938 225.441 134.039 223.516 135.711 217.637 135.488 218.387 131.691 218.801 130.09 220.078 128.852 221.691 128.484 222.438 128.191 223.211 127.992 224.004 127.891ZM224.004 127.891"/>
<path transform="matrix(1,0,0,1,-3.885138,-107.2157)" d="M241.148 139.125C241.727 139.359 242.242 139.73 242.648 140.203 243.562 141.516 243.848 144.18 242.586 145.273 240.66 146.953 234.773 146.73 235.531 142.934 235.949 141.336 237.219 140.098 238.828 139.727 239.578 139.438 240.355 139.234 241.148 139.125ZM241.148 139.125"/>
<path transform="matrix(1,0,0,1,-3.885138,-107.2157)" d="M214.836 138.824C217.043 138.824 219.195 140.461 218.586 142.816 217.836 145.711 213.504 146.379 211.551 144.316 209.355 142.004 212.551 139.246 214.836 138.824ZM214.836 138.824"/>
<path transform="matrix(1,0,0,1,-3.885138,-107.2157)" d="M153.75 161.332C155.953 161.332 158.109 162.969 157.5 165.316 156.75 168.211 152.414 168.879 150.465 166.816 148.266 164.504 151.5 161.754 153.75 161.332ZM153.75 161.332"/>
<path transform="matrix(1,0,0,1,-3.885138,-107.2157)" d="M218.754 145.637C220.738 145.363 221.617 148.312 220.941 149.746 220.066 151.613 217.363 152.699 215.691 151.246 213.523 149.289 215.879 145.727 218.754 145.637ZM218.754 145.637"/>
<path transform="matrix(1,0,0,1,-3.885138,-107.2157)" d="M228.75 145.672C230.641 146.52 232.172 148.254 231 150.422 229.922 152.414 226.176 152.941 224.852 150.961 223.336 148.68 226.5 144.984 228.75 145.672ZM228.75 145.672"/>
<path transform="matrix(1,0,0,1,-3.885138,-107.2157)" d="M304.777 128.25C306.676 129.098 308.199 130.824 307.027 132.988 305.953 134.992 302.211 135.516 300.879 133.539 299.348 131.25 302.477 127.547 304.777 128.25ZM304.777 128.25"/>
<path transform="matrix(1,0,0,1,-3.885138,-107.2157)" d="M271.441 122.934C273.336 123.781 274.859 125.512 273.691 127.68 272.617 129.676 268.875 130.199 267.539 128.219 266.012 125.941 269.137 122.25 271.441 122.934ZM271.441 122.934"/>
<path transform="matrix(1,0,0,1,-3.885138,-107.2157)" d="M164.863 240.328C163.508 242.34 161.574 244.551 160.734 245.062 155.363 245.504 150.602 250.262 149.086 256.746 147.57 263.234 149.797 269.07 154.727 271.828 156.367 272.746 158.215 273.219 160.094 273.203 169.629 273.203 180.676 262.184 187.094 254.73 187.727 253.98 189.023 252.426 190.727 250.371 194.52 245.789 200.609 238.441 205.551 232.793 208.469 234.391 210.637 236.543 211.688 239.609 212.684 242.504 215.004 245.398 218.527 245.398 219.34 245.391 220.145 245.254 220.914 244.988 227.836 242.672 234.129 230.371 231.082 220.988 230.332 218.738 228.562 215.738 222.504 211.648 225.941 209.227 229.609 207.152 233.453 205.449 244.754 200.477 257.074 198.254 269.398 198.961 274.855 199.324 280.215 197.383 284.168 193.605 288.621 189.496 291.555 183.488 293.488 177.473 297.547 175.223 313.516 167.414 326.992 174.668 335.902 179.469 343.102 181.875 348.516 181.875 350.293 181.91 352.055 181.582 353.699 180.914 355.148 180.328 356.402 179.348 357.324 178.086 361.449 176.984 372.719 173.586 376.867 167.879 378.723 165.414 379.5 162.297 379.012 159.246 378.113 153.504 373.246 148.824 370.898 146.863 370.508 143.316 368.934 134.535 362.648 129.832 361.383 128.938 360.332 127.77 359.574 126.422 357.367 122.863 355.184 120.945 344.723 118.703 340.328 117.629 335.684 118.445 331.922 120.953 330.113 122.18 328.527 123.699 327.227 125.453 319.297 123.137 311.152 124.312 304.484 125.281 299.984 125.941 295.688 126.562 292.996 125.828 291.422 125.398 289.641 124.77 287.746 124.102 280.156 121.418 269.746 117.734 256.449 121.379 250.859 122.879 244.148 120.996 234.863 118.379 223.156 115.051 207.113 110.477 184.566 110.879 154.191 111.441 124.68 122.977 99.211 144.238 88.922 151.281 79.387 161.871 70.164 172.109 59.316 184.125 49.059 195.516 38.25 200.895 19.176 210.359 9.539 206.191 9.488 206.145 5.672 204.27 2.859 209.992 6.676 211.867 6.922 211.988 10.027 213.449 15.898 213.449 21.66 213.449 30.082 212.039 41.086 206.578 53.004 200.664 63.66 188.828 74.941 176.301 80.941 169.605 87.141 162.758 93.473 156.977 93.371 157.867 93.316 158.762 93.316 159.66 93.395 166.273 96.957 172.355 102.684 175.664L102.938 175.809C112.688 180.848 124.891 184.379 134.332 184.379 135.824 184.383 137.312 184.277 138.789 184.066 137.094 188.23 135.145 192.289 132.953 196.215 129.344 202.68 128.641 207.891 130.785 212.16 135.195 220.922 150.156 223.297 174.832 226.551ZM181.996 227.512C187.566 228.211 194.566 229.094 199.191 230.355 194.52 235.762 189.219 242.16 185.781 246.309 184.117 248.324 182.844 249.863 182.184 250.629 171.887 262.629 162.328 268.777 157.844 266.266 154.949 264.645 154.629 261.016 155.289 258.195 156.039 254.941 158.387 251.559 161.371 251.406 164.535 251.242 167.836 247.312 170.062 244.027ZM287.789 174.262C286.156 179.684 283.559 185.445 279.809 188.91 277.109 191.508 273.438 192.836 269.699 192.57 238.379 190.941 219.309 205.828 216.594 208.102 211.734 205.52 206.746 203.191 201.645 201.137L200.023 200.477C205.207 193.418 217.074 177.227 221.023 171.562 224.023 167.258 236.477 166.785 242.023 167.234 246.176 167.484 246.68 161.309 242.543 160.883 240.414 160.711 221.633 159.441 215.754 167.941 211.641 173.871 198.277 192.074 193.867 198.074 190.469 196.801 187.289 195.668 184.621 194.754 191.594 190.453 200.812 181.328 203.004 162.57 204.051 153.57 201.977 146.07 196.824 140.289 187.363 129.652 170.918 129 170.754 129 166.695 129.117 166.594 135.117 170.648 135.367 171.066 135.367 184.941 136.172 192.336 144.848 196.027 149.176 197.488 154.898 196.68 161.844 193.68 187.605 175.824 191.918 175.078 192.09 171.867 192.781 171.672 197.293 174.816 198.254 180.57 200.012 187.734 202.508 194.152 205.004 209.152 210.871 223.402 217.973 224.984 222.953 226.484 227.617 224.281 233.648 221.422 236.949 219.922 238.664 218.762 239.07 218.535 239.039 218.535 239.039 218.113 238.793 217.688 237.539 213.375 225.051 198.621 223.199 184.359 221.398L179.723 220.809C157.297 217.867 139.582 215.559 136.461 209.332 135.336 207.082 135.996 203.836 138.496 199.359 149.461 179.691 150.703 164.574 150.75 163.941 150.953 162.148 149.625 160.543 147.824 160.406 146.02 160.27 144.465 161.656 144.398 163.461 143.848 167.98 142.844 172.43 141.398 176.746 135.988 180.129 119.324 177.141 105.938 170.242 102.117 168.094 99.723 164.078 99.645 159.699 99.574 155.805 100.906 152.02 103.395 149.023 127.727 128.773 155.836 117.75 184.711 117.219 206.309 116.82 221.191 121.043 233.145 124.449 243.039 127.262 250.852 129.48 258.148 127.484 269.535 124.363 278.469 127.484 285.637 130.066 287.633 130.77 289.516 131.438 291.316 131.934 295.289 133.012 299.977 132.328 305.406 131.543 311.242 130.695 317.73 129.758 323.871 131.121 322.809 133.473 322 135.934 321.457 138.457 320.664 142.633 326.926 143.824 327.719 139.648 328.398 136.586 329.547 133.648 331.133 130.941 331.152 130.918 331.172 130.891 331.184 130.859 332.258 129.02 333.719 127.434 335.461 126.211 337.805 124.684 340.684 124.219 343.387 124.926 352.344 126.848 353.062 128.012 354.156 129.773 355.336 131.797 356.926 133.551 358.824 134.926 364.172 138.938 364.621 148.531 364.629 148.621 364.66 149.598 365.145 150.508 365.941 151.078 367.492 152.211 372.082 156.328 372.691 160.23 372.918 161.605 372.559 163.012 371.691 164.109 369.09 167.664 359.691 170.977 354.441 172.23 353.168 172.531 352.297 173.113 352.117 174.367 351.781 174.766 351.328 175.051 350.82 175.176 349.059 175.754 343.492 176.316 329.992 169.051 317.242 162.195 303.434 166.004 295.551 169.359 296.449 164.906 296.996 160.395 297.195 155.859 297.316 151.609 290.941 151.426 290.82 155.676 290.512 161.965 289.496 168.199 287.789 174.262ZM287.789 174.262" fill="#29160b"/>
</g>
</svg>
